<svg width="174" height="48" viewBox="0 0 174 48" fill="none" xmlns="http://www.w3.org/2000/svg">
<path d="M9.68 34.96C12.7733 34.96 14.32 33.8133 14.32 31.52C14.32 30.5867 14.08 29.8533 13.6 29.32C13.1467 28.7867 12.2933 28.32 11.04 27.92L7.76 26.84C3.84 25.56 1.88 22.9867 1.88 19.12C1.88 16.88 2.57333 15.04 3.96 13.6C5.37333 12.1333 7.57333 11.4 10.56 11.4C11.8133 11.4 13.0533 11.5467 14.28 11.84C15.5067 12.1067 16.8133 12.5467 18.2 13.16L16.72 17.28C15.44 16.7733 14.3467 16.4133 13.44 16.2C12.56 15.96 11.6533 15.84 10.72 15.84C9.49333 15.84 8.52 16.0667 7.8 16.52C7.10667 16.9467 6.76 17.7333 6.76 18.88C6.76 19.7333 7 20.44 7.48 21C7.98667 21.5333 8.81333 21.9867 9.96 22.36L13.24 23.44C15.2133 24.1067 16.6933 25.08 17.68 26.36C18.6933 27.6133 19.2 29.28 19.2 31.36C19.2 33.76 18.44 35.7067 16.92 37.2C15.4 38.6667 13.0133 39.4 9.76 39.4C8.48 39.4 7.14667 39.2533 5.76 38.96C4.4 38.64 2.90667 38.1067 1.28 37.36L2.76 33.24C4.25333 33.88 5.52 34.3333 6.56 34.6C7.62667 34.84 8.66667 34.96 9.68 34.96ZM32.5431 39.4C31.8765 39.4 31.1965 39.3333 30.5031 39.2C29.8365 39.0667 29.1565 38.88 28.4631 38.64V47.52H23.8631V18.72H28.2231V21.48C29.4765 20.2267 30.5431 19.3867 31.4231 18.96C32.3031 18.5333 33.2231 18.32 34.1831 18.32C36.3965 18.32 38.1031 19.1467 39.3031 20.8C40.5031 22.4533 41.1031 24.7733 41.1031 27.76V29.92C41.1031 32.8267 40.3698 35.1333 38.9031 36.84C37.4365 38.5467 35.3165 39.4 32.5431 39.4ZM32.9431 22.6C32.3298 22.6 31.6765 22.7867 30.9831 23.16C30.3165 23.5067 29.4765 24.1867 28.4631 25.2V34.48C29.7698 35.0133 30.9698 35.28 32.0631 35.28C33.6098 35.28 34.7165 34.8 35.3831 33.84C36.0498 32.88 36.3831 31.5733 36.3831 29.92V27.76C36.3831 25.9733 36.0765 24.6667 35.4631 23.84C34.8765 23.0133 34.0365 22.6 32.9431 22.6ZM63.0413 27.64V30.04C63.0413 32.8667 62.2679 35.1333 60.7213 36.84C59.1746 38.5467 56.9879 39.4 54.1613 39.4C51.3346 39.4 49.1479 38.5467 47.6013 36.84C46.0546 35.1333 45.2813 32.8667 45.2813 30.04V27.64C45.2813 24.8133 46.0413 22.56 47.5613 20.88C49.1079 19.1733 51.3079 18.32 54.1613 18.32C57.0146 18.32 59.2013 19.1733 60.7213 20.88C62.2679 22.56 63.0413 24.8133 63.0413 27.64ZM58.3213 27.64C58.3213 26.0133 57.9613 24.7467 57.2413 23.84C56.5213 22.9067 55.4946 22.44 54.1613 22.44C52.8279 22.44 51.8013 22.9067 51.0813 23.84C50.3613 24.7467 50.0013 26.0133 50.0013 27.64V30.04C50.0013 31.6667 50.3613 32.9467 51.0813 33.88C51.8013 34.8133 52.8279 35.28 54.1613 35.28C55.4946 35.28 56.5213 34.8133 57.2413 33.88C57.9613 32.9467 58.3213 31.6667 58.3213 30.04V27.64ZM79.6391 22.92C78.3857 22.92 77.1857 23.12 76.0391 23.52C74.9191 23.8933 73.8391 24.5067 72.7991 25.36V39H68.1991V18.72H72.5591V21.84C73.9191 20.56 75.1324 19.6533 76.1991 19.12C77.2657 18.5867 78.4124 18.32 79.6391 18.32V22.92ZM95.8678 38.32C95.1745 38.64 94.3745 38.8933 93.4678 39.08C92.5611 39.2933 91.6411 39.4 90.7078 39.4C89.1611 39.4 87.9211 39.08 86.9878 38.44C86.0545 37.8 85.3745 36.9067 84.9478 35.76C84.5478 34.6133 84.3478 33.3067 84.3478 31.84V22.72H81.0678V18.72H84.3478V13.44H88.9478V18.72H95.2678V22.72H88.9478V31.84C88.9478 33.0667 89.1745 33.92 89.6278 34.4C90.1078 34.8533 90.7878 35.08 91.6678 35.08C92.0945 35.08 92.5478 35.04 93.0278 34.96C93.5345 34.8533 94.0945 34.68 94.7078 34.44L95.8678 38.32ZM104.286 14.88H99.4463V10.12H104.286V14.88ZM104.166 39H99.5663V18.72H104.166V39ZM122.224 22.72H115.904V39H111.304V22.72H108.024V18.72H111.304V16.6C111.304 14.3867 111.864 12.5733 112.984 11.16C114.104 9.72 115.904 9 118.384 9C119.29 9 120.224 9.09333 121.184 9.28C122.144 9.46666 123.01 9.70666 123.784 10L122.664 13.96C121.384 13.5333 120.237 13.32 119.224 13.32C118.157 13.32 117.33 13.56 116.744 14.04C116.184 14.4933 115.904 15.3467 115.904 16.6V18.72H122.224V22.72ZM133.782 41C132.902 43.4533 131.782 45.2133 130.422 46.28C129.062 47.3733 127.195 47.92 124.822 47.92V43.32C126.235 43.2667 127.342 42.9467 128.142 42.36C128.969 41.8 129.582 41.0133 129.982 40L130.342 39.08L123.102 18.72H127.662L131.142 28.84L132.502 33.12L133.822 28.84L137.142 18.72H141.702L133.782 41Z" fill="#0A2C47"/>
<path d="M143.496 36.1382C150.106 37.8977 161.78 39.4808 170.447 32.3032M143.532 39.3646C149.132 41.4492 158.841 43.315 170.432 38.181M147.413 33.0874C153.931 35.4582 158.616 30.0982 149.766 27.7727C146.968 26.7733 146.054 22.0126 154.069 23.5043M156.813 20.8169L161.39 28.0986L166.28 20.8027M161.352 27.9718L161.363 33.6838" stroke="#0A2C47" stroke-width="2" stroke-linecap="round" stroke-linejoin="round"/>
</svg>
