<svg width="35" height="35" viewBox="0 0 35 35" fill="none" xmlns="http://www.w3.org/2000/svg">
<rect width="35" height="35" rx="17.5" fill="#07619D"/>
<path d="M15.0487 26.2497C15.9881 26.2497 16.7497 25.4881 16.7497 24.5487C16.7497 23.6092 15.9881 22.8477 15.0487 22.8477C14.1092 22.8477 13.3477 23.6092 13.3477 24.5487C13.3477 25.4881 14.1092 26.2497 15.0487 26.2497Z" stroke="#F0F0F0" stroke-width="1.5" stroke-linecap="round" stroke-linejoin="round"/>
<path d="M22.4588 26.2497C23.3982 26.2497 24.1598 25.4881 24.1598 24.5487C24.1598 23.6092 23.3982 22.8477 22.4588 22.8477C21.5194 22.8477 20.7578 23.6092 20.7578 24.5487C20.7578 25.4881 21.5194 26.2497 22.4588 26.2497Z" stroke="#F0F0F0" stroke-width="1.5" stroke-linecap="round" stroke-linejoin="round"/>
<path d="M11.106 11.055L13.116 17.419C13.425 18.397 13.579 18.886 13.876 19.248C14.136 19.568 14.475 19.815 14.858 19.968C15.293 20.141 15.805 20.141 16.831 20.141H20.686C21.712 20.141 22.224 20.141 22.658 19.968C23.042 19.815 23.38 19.568 23.641 19.248C23.937 18.886 24.091 18.397 24.401 17.419L24.81 16.123L25.05 15.357L25.381 14.307C25.4991 13.9325 25.5274 13.5354 25.4634 13.148C25.3995 12.7606 25.2452 12.3936 25.013 12.0769C24.7809 11.7602 24.4774 11.5027 24.1271 11.3251C23.7768 11.1476 23.3897 11.055 22.997 11.055H11.106ZM11.106 11.055L11.095 11.018C11.0528 10.8766 11.0061 10.7365 10.955 10.598C10.7525 10.0855 10.4092 9.64082 9.96473 9.31523C9.52022 8.98963 8.99266 8.79645 8.443 8.758C8.34 8.75 8.227 8.75 8 8.75" stroke="#F0F0F0" stroke-width="1.5" stroke-linecap="round" stroke-linejoin="round"/>
</svg>
