<svg width="35" height="35" viewBox="0 0 35 35" fill="none" xmlns="http://www.w3.org/2000/svg">
<rect width="35" height="35" rx="17.5" fill="#07619D"/>
<path d="M26.5 25.25C26.5 23.16 24.83 20.182 22.5 19.523M20.5 25.25C20.5 22.599 17.814 19.25 14.5 19.25C11.186 19.25 8.5 22.599 8.5 25.25M20.5 15.75C21.2956 15.75 22.0587 15.4339 22.6213 14.8713C23.1839 14.3087 23.5 13.5456 23.5 12.75C23.5 11.9544 23.1839 11.1913 22.6213 10.6287C22.0587 10.0661 21.2956 9.75 20.5 9.75M17.5 12.75C17.5 13.5456 17.1839 14.3087 16.6213 14.8713C16.0587 15.4339 15.2956 15.75 14.5 15.75C13.7044 15.75 12.9413 15.4339 12.3787 14.8713C11.8161 14.3087 11.5 13.5456 11.5 12.75C11.5 11.9544 11.8161 11.1913 12.3787 10.6287C12.9413 10.0661 13.7044 9.75 14.5 9.75C15.2956 9.75 16.0587 10.0661 16.6213 10.6287C17.1839 11.1913 17.5 11.9544 17.5 12.75Z" stroke="#F0F0F0" stroke-width="1.5" stroke-linecap="round" stroke-linejoin="round"/>
</svg>
