<svg width="35" height="35" viewBox="0 0 35 35" fill="none" xmlns="http://www.w3.org/2000/svg">
<rect width="35" height="35" rx="17.5" fill="#0E4267"/>
<path d="M26.29 12.0309L18.04 7.51405C17.8744 7.42346 17.6887 7.37598 17.5 7.37598C17.3113 7.37598 17.1256 7.42346 16.96 7.51405L8.71 12.0309C8.53302 12.1278 8.38533 12.2704 8.28241 12.4439C8.17949 12.6174 8.12512 12.8154 8.125 13.0172V21.9834C8.12512 22.1852 8.17949 22.3832 8.28241 22.5567C8.38533 22.7302 8.53302 22.8728 8.71 22.9697L16.96 27.4865C17.1254 27.5776 17.3112 27.6253 17.5 27.6253C17.6888 27.6253 17.8746 27.5776 18.04 27.4865L26.29 22.9697C26.467 22.8728 26.6147 22.7302 26.7176 22.5567C26.8205 22.3832 26.8749 22.1852 26.875 21.9834V13.0172C26.8749 12.8154 26.8205 12.6174 26.7176 12.4439C26.6147 12.2704 26.467 12.1278 26.29 12.0309ZM17.32 8.17217C17.375 8.14147 17.437 8.12535 17.5 8.12535C17.563 8.12535 17.625 8.14147 17.68 8.17217L25.8128 12.6253L22.2344 14.5837C22.2174 14.5697 22.1992 14.5571 22.18 14.5462L13.93 10.0294L17.32 8.17217ZM17.5 17.1722L9.18719 12.6253L13.1462 10.4569L21.4591 15.0075L17.5 17.1722ZM9.07 22.3097C9.0111 22.2774 8.96193 22.23 8.92763 22.1723C8.89333 22.1146 8.87515 22.0487 8.875 21.9815V13.3087L17.125 17.8237V26.7215L9.07 22.3097ZM25.93 22.3097L17.875 26.7159V17.8237L21.625 15.7715V19.7503C21.625 19.8498 21.6645 19.9451 21.7348 20.0155C21.8052 20.0858 21.9005 20.1253 22 20.1253C22.0995 20.1253 22.1948 20.0858 22.2652 20.0155C22.3355 19.9451 22.375 19.8498 22.375 19.7503V15.3609L26.125 13.3087V21.9834C26.1248 22.0506 26.1067 22.1164 26.0724 22.1742C26.0381 22.2319 25.9889 22.2793 25.93 22.3115V22.3097Z" fill="#F0F0F0"/>
</svg>
