<svg width="35" height="35" viewBox="0 0 35 35" fill="none" xmlns="http://www.w3.org/2000/svg">
<rect width="35" height="35" rx="17.5" fill="#0E4267"/>
<path fill-rule="evenodd" clip-rule="evenodd" d="M19.886 17.8335C19.7481 17.4435 19.4927 17.1058 19.155 16.867C18.8172 16.6281 18.4137 16.4999 18 16.5V16H17V16.5C16.4696 16.5 15.9609 16.7107 15.5858 17.0858C15.2107 17.4609 15 17.9696 15 18.5C15 19.0304 15.2107 19.5391 15.5858 19.9142C15.9609 20.2893 16.4696 20.5 17 20.5V22.5C16.565 22.5 16.1945 22.2225 16.0565 21.8335C16.036 21.7699 16.003 21.711 15.9594 21.6603C15.9157 21.6097 15.8624 21.5683 15.8025 21.5386C15.7426 21.5089 15.6773 21.4916 15.6106 21.4875C15.5439 21.4835 15.477 21.4929 15.414 21.5152C15.3509 21.5375 15.293 21.5721 15.2436 21.6172C15.1942 21.6622 15.1543 21.7167 15.1264 21.7775C15.0984 21.8382 15.0829 21.9039 15.0808 21.9707C15.0787 22.0376 15.0899 22.1041 15.114 22.1665C15.2519 22.5565 15.5073 22.8942 15.845 23.133C16.1828 23.3719 16.5863 23.5001 17 23.5V24H18V23.5C18.5304 23.5 19.0391 23.2893 19.4142 22.9142C19.7893 22.5391 20 22.0304 20 21.5C20 20.9696 19.7893 20.4609 19.4142 20.0858C19.0391 19.7107 18.5304 19.5 18 19.5V17.5C18.2068 17.4999 18.4085 17.564 18.5774 17.6834C18.7463 17.8027 18.874 17.9715 18.943 18.1665C18.9872 18.2915 19.0792 18.3939 19.1988 18.4511C19.2581 18.4795 19.3223 18.4958 19.3879 18.4993C19.4535 18.5028 19.5191 18.4934 19.581 18.4715C19.6429 18.4496 19.6999 18.4158 19.7488 18.3719C19.7976 18.328 19.8373 18.2749 19.8656 18.2157C19.894 18.1564 19.9103 18.0922 19.9138 18.0266C19.9173 17.961 19.9079 17.8954 19.886 17.8335ZM17 17.5C16.7348 17.5 16.4804 17.6054 16.2929 17.7929C16.1054 17.9804 16 18.2348 16 18.5C16 18.7652 16.1054 19.0196 16.2929 19.2071C16.4804 19.3946 16.7348 19.5 17 19.5V17.5ZM18 22.5C18.2652 22.5 18.5196 22.3946 18.7071 22.2071C18.8946 22.0196 19 21.7652 19 21.5C19 21.2348 18.8946 20.9804 18.7071 20.7929C18.5196 20.6054 18.2652 20.5 18 20.5V22.5Z" fill="#F7F7F7"/>
<path fill-rule="evenodd" clip-rule="evenodd" d="M12.0765 9.8105C13.3035 9.21 15.3165 8.5 17.5195 8.5C19.6765 8.5 21.6365 9.1805 22.857 9.773L22.926 9.8065C23.294 9.9885 23.591 10.1605 23.8 10.3L21.953 13C26.211 17.353 29.5 26.4985 17.5195 26.4985C5.53899 26.4985 8.73949 17.519 13.0345 13L11.1995 10.3C11.341 10.2075 11.5205 10.1 11.7345 9.986C11.8405 9.929 11.9545 9.87017 12.0765 9.8105ZM20.766 12.9645L22.2445 10.803C20.8695 10.902 19.2335 11.225 17.6585 11.681C16.5335 12.006 15.2835 11.9565 14.126 11.743C13.8343 11.689 13.5446 11.6246 13.2575 11.55L14.2175 12.9635C16.275 13.696 18.708 13.696 20.766 12.9645ZM13.64 13.815C16.0475 14.745 18.941 14.745 21.3485 13.814C22.3532 14.8736 23.1938 16.0774 23.8425 17.3855C24.5185 18.7645 24.8865 20.143 24.8265 21.331C24.7685 22.4775 24.3175 23.457 23.2875 24.185C22.214 24.9435 20.4085 25.4985 17.519 25.4985C14.6265 25.4985 12.8125 24.953 11.729 24.203C10.6915 23.4845 10.236 22.518 10.1715 21.387C10.104 20.212 10.464 18.8405 11.1375 17.452C11.78 16.128 12.6765 14.8535 13.64 13.815ZM13.065 10.458C13.465 10.577 13.883 10.6805 14.307 10.759C15.382 10.957 16.46 10.986 17.38 10.7195C18.4521 10.4071 19.5425 10.1614 20.645 9.984C19.725 9.707 18.649 9.5 17.519 9.5C15.7965 9.5 14.19 9.9805 13.065 10.458Z" fill="#F7F7F7"/>
<path fill-rule="evenodd" clip-rule="evenodd" d="M20.2219 17.8335C20.0841 17.4435 19.8287 17.1058 19.4909 16.867C19.1531 16.6281 18.7496 16.4999 18.3359 16.5V16H17.3359V16.5C16.8055 16.5 16.2968 16.7107 15.9217 17.0858C15.5467 17.4609 15.3359 17.9696 15.3359 18.5C15.3359 19.0304 15.5467 19.5391 15.9217 19.9142C16.2968 20.2893 16.8055 20.5 17.3359 20.5V22.5C16.9009 22.5 16.5304 22.2225 16.3924 21.8335C16.372 21.7699 16.3389 21.711 16.2953 21.6603C16.2517 21.6097 16.1983 21.5683 16.1384 21.5386C16.0785 21.5089 16.0133 21.4916 15.9465 21.4875C15.8798 21.4835 15.8129 21.4929 15.7499 21.5152C15.6869 21.5375 15.6289 21.5721 15.5795 21.6172C15.5301 21.6622 15.4903 21.7167 15.4623 21.7775C15.4343 21.8382 15.4188 21.9039 15.4167 21.9707C15.4146 22.0376 15.4259 22.1041 15.4499 22.1665C15.5878 22.5565 15.8432 22.8942 16.181 23.133C16.5187 23.3719 16.9223 23.5001 17.3359 23.5V24H18.3359V23.5C18.8664 23.5 19.3751 23.2893 19.7502 22.9142C20.1252 22.5391 20.3359 22.0304 20.3359 21.5C20.3359 20.9696 20.1252 20.4609 19.7502 20.0858C19.3751 19.7107 18.8664 19.5 18.3359 19.5V17.5C18.5427 17.4999 18.7445 17.564 18.9134 17.6834C19.0822 17.8027 19.21 17.9715 19.2789 18.1665C19.3231 18.2915 19.4151 18.3939 19.5348 18.4511C19.594 18.4795 19.6583 18.4958 19.7238 18.4993C19.7894 18.5028 19.855 18.4934 19.9169 18.4715C19.9789 18.4496 20.0359 18.4158 20.0847 18.3719C20.1335 18.328 20.1732 18.2749 20.2016 18.2157C20.2299 18.1564 20.2463 18.0922 20.2498 18.0266C20.2533 17.961 20.2438 17.8954 20.2219 17.8335ZM17.3359 17.5C17.0707 17.5 16.8164 17.6054 16.6288 17.7929C16.4413 17.9804 16.3359 18.2348 16.3359 18.5C16.3359 18.7652 16.4413 19.0196 16.6288 19.2071C16.8164 19.3946 17.0707 19.5 17.3359 19.5V17.5ZM18.3359 22.5C18.6012 22.5 18.8555 22.3946 19.043 22.2071C19.2306 22.0196 19.3359 21.7652 19.3359 21.5C19.3359 21.2348 19.2306 20.9804 19.043 20.7929C18.8555 20.6054 18.6012 20.5 18.3359 20.5V22.5Z" fill="#F7F7F7"/>
<path fill-rule="evenodd" clip-rule="evenodd" d="M12.4124 9.8105C13.6394 9.21 15.6524 8.5 17.8554 8.5C20.0124 8.5 21.9724 9.1805 23.1929 9.773L23.2619 9.8065C23.6299 9.9885 23.9269 10.1605 24.1359 10.3L22.2889 13C26.5469 17.353 29.8359 26.4985 17.8554 26.4985C5.87493 26.4985 9.07543 17.519 13.3704 13L11.5354 10.3C11.6769 10.2075 11.8564 10.1 12.0704 9.986C12.1764 9.929 12.2904 9.87017 12.4124 9.8105ZM21.1019 12.9645L22.5804 10.803C21.2054 10.902 19.5694 11.225 17.9944 11.681C16.8694 12.006 15.6194 11.9565 14.4619 11.743C14.1702 11.689 13.8805 11.6246 13.5934 11.55L14.5534 12.9635C16.6109 13.696 19.0439 13.696 21.1019 12.9645ZM13.9759 13.815C16.3834 14.745 19.2769 14.745 21.6844 13.814C22.6891 14.8736 23.5297 16.0774 24.1784 17.3855C24.8544 18.7645 25.2224 20.143 25.1624 21.331C25.1044 22.4775 24.6534 23.457 23.6234 24.185C22.5499 24.9435 20.7444 25.4985 17.8549 25.4985C14.9624 25.4985 13.1484 24.953 12.0649 24.203C11.0274 23.4845 10.5719 22.518 10.5074 21.387C10.4399 20.212 10.7999 18.8405 11.4734 17.452C12.1159 16.128 13.0124 14.8535 13.9759 13.815ZM13.4009 10.458C13.8009 10.577 14.2189 10.6805 14.6429 10.759C15.7179 10.957 16.7959 10.986 17.7159 10.7195C18.788 10.4071 19.8784 10.1614 20.9809 9.984C20.0609 9.707 18.9849 9.5 17.8549 9.5C16.1324 9.5 14.5259 9.9805 13.4009 10.458Z" fill="#F7F7F7"/>
</svg>
