<svg width="24" height="25" viewBox="0 0 24 25" fill="none" xmlns="http://www.w3.org/2000/svg">
<path d="M12 2.5C17.523 2.5 22 6.977 22 12.5C22 18.023 17.523 22.5 12 22.5C6.477 22.5 2 18.023 2 12.5C2 6.977 6.477 2.5 12 2.5ZM12 4.5C9.87827 4.5 7.84344 5.34285 6.34315 6.84315C4.84285 8.34344 4 10.3783 4 12.5C4 14.6217 4.84285 16.6566 6.34315 18.1569C7.84344 19.6571 9.87827 20.5 12 20.5C14.1217 20.5 16.1566 19.6571 17.6569 18.1569C19.1571 16.6566 20 14.6217 20 12.5C20 10.3783 19.1571 8.34344 17.6569 6.84315C16.1566 5.34285 14.1217 4.5 12 4.5ZM7.5 11C7.89782 11 8.27936 11.158 8.56066 11.4393C8.84196 11.7206 9 12.1022 9 12.5C9 12.8978 8.84196 13.2794 8.56066 13.5607C8.27936 13.842 7.89782 14 7.5 14C7.10218 14 6.72064 13.842 6.43934 13.5607C6.15804 13.2794 6 12.8978 6 12.5C6 12.1022 6.15804 11.7206 6.43934 11.4393C6.72064 11.158 7.10218 11 7.5 11ZM12 11C12.3978 11 12.7794 11.158 13.0607 11.4393C13.342 11.7206 13.5 12.1022 13.5 12.5C13.5 12.8978 13.342 13.2794 13.0607 13.5607C12.7794 13.842 12.3978 14 12 14C11.6022 14 11.2206 13.842 10.9393 13.5607C10.658 13.2794 10.5 12.8978 10.5 12.5C10.5 12.1022 10.658 11.7206 10.9393 11.4393C11.2206 11.158 11.6022 11 12 11ZM16.5 11C16.8978 11 17.2794 11.158 17.5607 11.4393C17.842 11.7206 18 12.1022 18 12.5C18 12.8978 17.842 13.2794 17.5607 13.5607C17.2794 13.842 16.8978 14 16.5 14C16.1022 14 15.7206 13.842 15.4393 13.5607C15.158 13.2794 15 12.8978 15 12.5C15 12.1022 15.158 11.7206 15.4393 11.4393C15.7206 11.158 16.1022 11 16.5 11Z" fill="#0A2C47"/>
</svg>
